{
  "accessors": [
    {
      "bufferView": 2,
      "componentType": 5126,
      "count": 12827,
      "max": [
        0.11843565106391907,
        0.20844882726669312,
        0.1330834925174713
      ],
      "min": [
        -0.11843565106391907,
        -0.0998043641448021,
        -0.15046453475952148
      ],
      "type": "VEC3"
    },
    {
      "bufferView": 2,
      "byteOffset": 153924,
      "componentType": 5126,
      "count": 12827,
      "type": "VEC3"
    },
    {
      "bufferView": 1,
      "componentType": 5126,
      "count": 12827,
      "type": "VEC2"
    },
    {
      "bufferView": 0,
      "componentType": 5125,
      "count": 62016,
      "type": "SCALAR"
    },
    {
      "bufferView": 2,
      "byteOffset": 307848,
      "componentType": 5126,
      "count": 1991,
      "max": [
        0.04314987361431122,
        0.13933464884757996,
        0.1887984573841095
      ],
      "min": [
        -0.04314987733960152,
        0.08515899628400803,
        0.12361766397953033
      ],
      "type": "VEC3"
    },
    {
      "bufferView": 2,
      "byteOffset": 331740,
      "componentType": 5126,
      "count": 1991,
      "type": "VEC3"
    },
    {
      "bufferView": 1,
      "byteOffset": 102616,
      "componentType": 5126,
      "count": 1991,
      "type": "VEC2"
    },
    {
      "bufferView": 0,
      "byteOffset": 248064,
      "componentType": 5125,
      "count": 7104,
      "type": "SCALAR"
    },
    {
      "bufferView": 2,
      "byteOffset": 355632,
      "componentType": 5126,
      "count": 1016,
      "max": [
        0.06962001323699951,
        0.16232642531394958,
        0.0951625406742096
      ],
      "min": [
        -0.06962002068758011,
        0.13816004991531372,
        0.07551909238100052
      ],
      "type": "VEC3"
    },
    {
      "bufferView": 2,
      "byteOffset": 367824,
      "componentType": 5126,
      "count": 1016,
      "type": "VEC3"
    },
    {
      "bufferView": 1,
      "byteOffset": 118544,
      "componentType": 5126,
      "count": 1016,
      "type": "VEC2"
    },
    {
      "bufferView": 0,
      "byteOffset": 276480,
      "componentType": 5125,
      "count": 3072,
      "type": "SCALAR"
    },
    {
      "bufferView": 2,
      "byteOffset": 380016,
      "componentType": 5126,
      "count": 1046,
      "max": [
        0.06742466986179352,
        0.15752793848514557,
        0.09106993675231934
      ],
      "min": [
        -0.06742468476295471,
        0.14241766929626465,
        0.07830806076526642
      ],
      "type": "VEC3"
    },
    {
      "bufferView": 2,
      "byteOffset": 392568,
      "componentType": 5126,
      "count": 1046,
      "type": "VEC3"
    },
    {
      "bufferView": 1,
      "byteOffset": 126672,
      "componentType": 5126,
      "count": 1046,
      "type": "VEC2"
    },
    {
      "bufferView": 0,
      "byteOffset": 288768,
      "componentType": 5125,
      "count": 3456,
      "type": "SCALAR"
    }
  ],
  "asset": {
    "generator": "fab-model-conversion",
    "version": "2.0"
  },
  "bufferViews": [
    {
      "buffer": 0,
      "byteLength": 302592,
      "target": 34963
    },
    {
      "buffer": 0,
      "byteLength": 135040,
      "byteOffset": 302592,
      "byteStride": 8,
      "target": 34962
    },
    {
      "buffer": 0,
      "byteLength": 405120,
      "byteOffset": 437632,
      "byteStride": 12,
      "target": 34962
    }
  ],
  "buffers": [
    {
      "byteLength": 842752,
      "uri": "scene.bin"
    }
  ],
  "materials": [
    {
      "doubleSided": true,
      "name": "Rubber_Duck_Yellow",
      "pbrMetallicRoughness": {
        "baseColorFactor": [
          1.0,
          0.555786,
          0.0300207,
          1.0
        ],
        "metallicFactor": 0.0,
        "roughnessFactor": 0.3
      }
    },
    {
      "doubleSided": true,
      "name": "Rubber_Duck_Orange",
      "pbrMetallicRoughness": {
        "baseColorFactor": [
          1.0,
          0.0524061,
          0.0,
          1.0
        ],
        "metallicFactor": 0.0,
        "roughnessFactor": 0.3
      }
    },
    {
      "doubleSided": true,
      "name": "Rubber_Duck_White",
      "pbrMetallicRoughness": {
        "baseColorFactor": [
          0.8,
          0.8,
          0.8,
          1.0
        ],
        "metallicFactor": 0.0,
        "roughnessFactor": 0.3
      }
    },
    {
      "doubleSided": true,
      "name": "Rubber_Duck_Black",
      "pbrMetallicRoughness": {
        "baseColorFactor": [
          0.0,
          0.0,
          0.0,
          1.0
        ],
        "metallicFactor": 0.0,
        "roughnessFactor": 0.3
      }
    }
  ],
  "meshes": [
    {
      "name": "Object_0",
      "primitives": [
        {
          "attributes": {
            "NORMAL": 1,
            "POSITION": 0,
            "TEXCOORD_0": 2
          },
          "indices": 3,
          "material": 0,
          "mode": 4
        }
      ]
    },
    {
      "name": "Object_1",
      "primitives": [
        {
          "attributes": {
            "NORMAL": 5,
            "POSITION": 4,
            "TEXCOORD_0": 6
          },
          "indices": 7,
          "material": 1,
          "mode": 4
        }
      ]
    },
    {
      "name": "Object_2",
      "primitives": [
        {
          "attributes": {
            "NORMAL": 9,
            "POSITION": 8,
            "TEXCOORD_0": 10
          },
          "indices": 11,
          "material": 2,
          "mode": 4
        }
      ]
    },
    {
      "name": "Object_3",
      "primitives": [
        {
          "attributes": {
            "NORMAL": 13,
            "POSITION": 12,
            "TEXCOORD_0": 14
          },
          "indices": 15,
          "material": 3,
          "mode": 4
        }
      ]
    }
  ],
  "nodes": [
    {
      "children": [
        1
      ],
      "matrix": [
        1.0,
        0.0,
        0.0,
        0.0,
        0.0,
        2.220446049250313e-16,
        -1.0,
        0.0,
        0.0,
        1.0,
        2.220446049250313e-16,
        0.0,
        0.0,
        0.0,
        0.0,
        1.0
      ],
      "name": "Sketchfab_model"
    },
    {
      "children": [
        2
      ],
      "name": "root"
    },
    {
      "children": [
        3
      ],
      "matrix": [
        1.0,
        0.0,
        0.0,
        0.0,
        0.0,
        2.220446049250313e-16,
        1.0,
        0.0,
        0.0,
        -1.0,
        2.220446049250313e-16,
        0.0,
        0.0,
        0.0,
        0.0,
        1.0
      ],
      "name": "GLTF_SceneRootNode"
    },
    {
      "children": [
        4,
        5,
        6,
        7
      ],
      "name": "Rubber Duck_0"
    },
    {
      "mesh": 0,
      "name": "Object_4"
    },
    {
      "mesh": 1,
      "name": "Object_5"
    },
    {
      "mesh": 2,
      "name": "Object_6"
    },
    {
      "mesh": 3,
      "name": "Object_7"
    }
  ],
  "scene": 0,
  "scenes": [
    {
      "name": "Sketchfab_Scene",
      "nodes": [
        0
      ]
    }
  ]
}
